<?xml version="1.0" encoding="iso-8859-1"?>
<!-- Generator: Adobe Illustrator 19.0.0, SVG Export Plug-In . SVG Version: 6.00 Build 0)  -->
<svg version="1.1" id="Capa_1" xmlns="http://www.w3.org/2000/svg" xmlns:xlink="http://www.w3.org/1999/xlink" x="0px" y="0px"
	 viewBox="0 0 512 512" style="enable-background:new 0 0 512 512;" xml:space="preserve">
<path style="fill:#FFF6E1;" d="M343.617,432.484v-17.129c0-7.487,3.168-14.239,8.231-18.984V35.523H34.771v364.294
	c4.647-1.912,9.725-2.966,15.041-2.966h261.491c-21.897,0-39.813,17.916-39.813,39.813l0,0c0,21.897,17.916,39.813,39.813,39.813
	h0.138c19.97,0,36.546-14.492,39.812-33.53C346.825,441.529,343.617,437.383,343.617,432.484z"/>
<path style="fill:#4B7C91;" d="M485.833,443.471v12.973c0,11.064-8.969,20.033-20.033,20.033h-85.983
	c-11.064,0-20.033-8.969-20.033-20.033v-12.973H485.833z"/>
<path style="fill:#FFD974;" d="M491.013,443.471H354.604c-6.068,0-10.987-4.919-10.987-10.987v-17.129
	c0-14.364,11.644-26.008,26.008-26.008h106.368c14.364,0,26.008,11.644,26.008,26.008v17.129
	C502,438.552,497.081,443.471,491.013,443.471z"/>
<path style="fill:#4B7C91;" d="M386.305,301.962c0.136,0.268,13.609,27.123,13.609,49.449c0,16.682-5.813,28.357-14.195,37.935
	H459.9c-8.383-9.579-14.196-21.254-14.196-37.935c0-22.326,13.47-49.166,13.606-49.432c0.043-0.082,0.082-0.174,0.121-0.26
	c3.811-6.513,5.824-13.893,5.824-21.391c0-23.405-19.042-42.449-42.446-42.449c-23.403,0-42.447,19.041-42.447,42.446
	c0,7.498,2.011,14.876,5.822,21.389C386.223,301.796,386.264,301.88,386.305,301.962z"/>
<path style="fill:#FFD974;" d="M10,436.664L10,436.664c0,21.897,17.916,39.813,39.813,39.813h261.491
	c-21.897,0-39.812-17.916-39.812-39.813l0,0c0-21.897,17.916-39.813,39.812-39.813H49.813C27.916,396.852,10,414.767,10,436.664z"/>
<path d="M475.992,379.347h-11.334c-6.166-8.251-8.955-17.034-8.955-27.936c0-19.671,12.272-44.403,12.509-44.875
	c0.031-0.062,0.063-0.124,0.093-0.186c4.548-7.939,6.95-16.926,6.95-26.022c0-28.92-23.527-52.449-52.445-52.449
	c-28.92,0-52.447,23.527-52.447,52.446c0,9.124,2.415,18.135,6.988,26.088c0.003,0.007,0.007,0.014,0.01,0.021
	c0.003,0.005,0.013,0.026,0.016,0.031c0.126,0.25,12.538,25.188,12.538,44.946c0,10.902-2.789,19.685-8.954,27.936h-11.335
	c-2.671,0-5.271,0.301-7.777,0.855V35.523c0-5.523-4.478-10-10-10H34.771c-5.522,0-10,4.477-10,10v358.108
	C9.972,402.276,0,418.323,0,436.664c0,27.467,22.346,49.813,49.813,49.813h261.491c0.003,0,0.006,0,0.01,0h0.128
	c16.246,0,30.864-7.665,40.126-19.842c4.182,11.559,15.266,19.842,28.249,19.842H465.8c16.561,0,30.033-13.473,30.033-30.033v-3.554
	c9.253-2.187,16.167-10.495,16.167-20.406v-17.129C512,395.5,495.847,379.347,475.992,379.347z M395.243,297.478
	c-0.13-0.278-0.273-0.55-0.428-0.814c-2.913-4.978-4.453-10.627-4.453-16.338c0-17.891,14.556-32.446,32.447-32.446
	s32.445,14.557,32.445,32.449c0,5.71-1.54,11.36-4.455,16.34c-0.173,0.296-0.331,0.601-0.473,0.913l-0.013,0.028
	c-1.236,2.482-14.611,29.909-14.611,53.802c0,10.159,1.916,19.413,5.813,27.936H404.1c3.896-8.522,5.813-17.776,5.813-27.936
	C409.914,326.911,396.083,299.141,395.243,297.478z M369.625,399.347h106.367l0,0c8.827,0,16.008,7.181,16.008,16.008v17.129
	c0,0.544-0.443,0.987-0.987,0.987l0,0H354.604l0,0c-0.124,0-0.241-0.029-0.351-0.071c-0.025-0.009-0.051-0.024-0.078-0.037
	c-0.074-0.036-0.141-0.084-0.204-0.138c-0.027-0.023-0.055-0.041-0.082-0.068c-0.167-0.177-0.274-0.412-0.274-0.674v-17.129
	c0-3.783,1.326-7.259,3.529-10.002c0.061-0.076,0.117-0.154,0.18-0.229c0.24-0.288,0.497-0.561,0.756-0.832
	c0.115-0.119,0.226-0.241,0.344-0.357C361.315,401.102,365.267,399.347,369.625,399.347L369.625,399.347z M261.551,439.017
	c0.012,0.248,0.031,0.493,0.046,0.74c0.033,0.537,0.072,1.072,0.122,1.604c0.026,0.279,0.056,0.557,0.086,0.834
	c0.057,0.513,0.123,1.023,0.195,1.531c0.037,0.263,0.073,0.526,0.114,0.787c0.094,0.593,0.201,1.182,0.317,1.768
	c0.032,0.162,0.058,0.326,0.091,0.488c0.153,0.738,0.323,1.47,0.508,2.196c0.053,0.209,0.114,0.415,0.17,0.623
	c0.141,0.522,0.286,1.042,0.443,1.558c0.08,0.262,0.164,0.522,0.248,0.783c0.15,0.466,0.307,0.929,0.471,1.388
	c0.092,0.259,0.184,0.518,0.281,0.775c0.184,0.492,0.379,0.979,0.578,1.464c0.085,0.206,0.165,0.413,0.252,0.617
	c0.289,0.677,0.592,1.348,0.91,2.009c0.064,0.132,0.133,0.261,0.198,0.393c0.263,0.534,0.532,1.063,0.813,1.586
	c0.121,0.225,0.247,0.447,0.371,0.67c0.24,0.431,0.485,0.859,0.738,1.282c0.137,0.23,0.275,0.458,0.416,0.686
	c0.266,0.43,0.541,0.855,0.819,1.277c0.13,0.196,0.257,0.394,0.39,0.589c0.397,0.582,0.804,1.157,1.225,1.721
	c0.017,0.023,0.033,0.047,0.051,0.07c0.005,0.007,0.01,0.014,0.015,0.021H49.813C33.374,466.477,20,453.103,20,436.664
	c0-12.408,7.622-23.066,18.427-27.548c0.049-0.019,0.101-0.031,0.15-0.051c1.323-0.544,2.675-0.988,4.051-1.333
	c0.094-0.023,0.19-0.043,0.285-0.066c0.358-0.086,0.718-0.168,1.079-0.24c0.19-0.038,0.382-0.069,0.573-0.103
	c0.277-0.05,0.554-0.101,0.833-0.143c0.263-0.039,0.529-0.069,0.795-0.101c0.216-0.026,0.432-0.057,0.649-0.079
	c0.327-0.032,0.657-0.053,0.987-0.075c0.163-0.011,0.325-0.027,0.489-0.035c0.495-0.025,0.994-0.038,1.495-0.038h221.608
	c-6.232,8.318-9.93,18.643-9.93,29.813C261.491,437.453,261.514,438.237,261.551,439.017z M311.441,466.477h-0.138
	c-16.438,0-29.813-13.374-29.813-29.813s13.374-29.813,29.813-29.813c5.522,0,10-4.477,10-10s-4.478-10-10-10H49.813
	c-0.852,0-1.702,0.022-2.548,0.065c-0.263,0.013-0.521,0.042-0.783,0.059c-0.571,0.038-1.143,0.072-1.71,0.129V45.523h297.076
	v346.925c-0.72,0.875-1.392,1.785-2.024,2.721c-0.074,0.109-0.144,0.221-0.217,0.331c-0.208,0.316-0.415,0.633-0.613,0.956
	c-0.157,0.254-0.308,0.512-0.46,0.771c-0.101,0.173-0.202,0.345-0.299,0.52c-0.198,0.352-0.389,0.708-0.576,1.067
	c-0.036,0.069-0.071,0.138-0.106,0.207c-1.589,3.107-2.738,6.472-3.368,10.016c-0.012,0.066-0.024,0.132-0.035,0.198
	c-0.071,0.413-0.135,0.828-0.192,1.245c-0.024,0.172-0.045,0.344-0.066,0.516c-0.042,0.344-0.082,0.689-0.114,1.036
	c-0.027,0.284-0.045,0.57-0.065,0.855c-0.018,0.258-0.039,0.514-0.051,0.774c-0.027,0.564-0.043,1.128-0.043,1.694v17.129
	c0,0.721,0.037,1.434,0.108,2.139c0.005,0.048,0.016,0.093,0.021,0.141c0.519,4.819,2.659,9.211,5.966,12.53
	C335.22,458.701,324.156,466.477,311.441,466.477z M475.833,456.444c0,5.532-4.501,10.033-10.033,10.033h-85.983
	c-5.532,0-10.032-4.501-10.032-10.033v-2.973h106.049v2.973H475.833z"/>
<path style="fill:#FF3C63;" d="M310.648,312.372c0,7.134-9.115,12.404-11.687,18.607c-2.667,6.431-0.049,16.579-4.895,21.425
	c-4.846,4.846-14.994,2.228-21.425,4.895c-6.203,2.572-11.474,11.687-18.607,11.687c-7.134,0-12.404-9.115-18.607-11.687
	c-6.431-2.667-16.579-0.049-21.425-4.895c-4.846-4.846-2.228-14.994-4.895-21.425c-2.572-6.203-11.687-11.474-11.687-18.607
	c0-7.134,9.115-12.404,11.687-18.607c2.667-6.431,0.049-16.579,4.895-21.425c4.846-4.846,14.994-2.228,21.425-4.895
	c6.203-2.572,11.474-11.687,18.607-11.687c7.134,0,12.404,9.115,18.607,11.687c6.431,2.667,16.579,0.049,21.425,4.895
	c4.846,4.846,2.228,14.994,4.895,21.425C301.533,299.968,310.648,305.238,310.648,312.372z"/>
<path d="M254.033,378.986c-8.066,0-13.81-5.157-18.003-8.922c-1.475-1.324-3.494-3.138-4.435-3.528
	c-1.111-0.46-3.841-0.624-6.034-0.755c-5.532-0.331-13.108-0.784-18.632-6.306c-5.521-5.523-5.975-13.099-6.306-18.631
	c-0.131-2.194-0.295-4.924-0.755-6.035c-0.391-0.94-2.203-2.959-3.527-4.434c-3.766-4.193-8.923-9.936-8.923-18.003
	s5.157-13.811,8.923-18.004c1.324-1.474,3.138-3.493,3.527-4.434c0.461-1.111,0.624-3.842,0.755-6.036
	c0.331-5.532,0.784-13.107,6.306-18.63c5.523-5.523,13.1-5.976,18.631-6.306c2.194-0.131,4.924-0.294,6.035-0.755
	c0.941-0.391,2.961-2.204,4.435-3.528c4.193-3.765,9.937-8.922,18.003-8.922c8.066,0,13.81,5.157,18.004,8.923
	c1.474,1.324,3.493,3.137,4.434,3.527c1.111,0.46,3.841,0.624,6.035,0.755c5.532,0.331,13.108,0.784,18.632,6.306
	c5.521,5.523,5.975,13.099,6.306,18.63c0.131,2.194,0.294,4.924,0.755,6.035c0.391,0.941,2.203,2.96,3.527,4.435
	c3.765,4.193,8.922,9.937,8.922,18.003c0,8.066-5.156,13.81-8.922,18.003c-1.324,1.475-3.137,3.494-3.527,4.435
	c-0.461,1.112-0.624,3.842-0.755,6.035c-0.331,5.532-0.784,13.109-6.308,18.631c-5.521,5.522-13.098,5.975-18.63,6.306
	c-2.194,0.131-4.924,0.294-6.035,0.755c-0.94,0.39-2.959,2.203-4.434,3.527C267.844,373.829,262.101,378.986,254.033,378.986z
	 M254.341,359.02L254.341,359.02L254.341,359.02z M221.186,345.22c1.242,0.338,3.798,0.491,5.569,0.597
	c3.882,0.232,8.282,0.495,12.501,2.245c4.1,1.7,7.308,4.58,10.137,7.122c1.342,1.205,3.506,3.147,4.641,3.711
	c1.136-0.563,3.3-2.507,4.642-3.712c2.829-2.541,6.036-5.42,10.135-7.12c4.22-1.75,8.62-2.013,12.503-2.245
	c1.771-0.106,4.327-0.259,5.569-0.597c0.338-1.242,0.491-3.798,0.597-5.569c0.232-3.882,0.495-8.283,2.245-12.502
	c1.699-4.098,4.579-7.306,7.12-10.136c1.205-1.342,3.148-3.505,3.712-4.641c-0.563-1.135-2.507-3.299-3.712-4.642
	c-2.541-2.83-5.421-6.037-7.12-10.135c-1.75-4.219-2.013-8.62-2.245-12.503c-0.105-1.771-0.259-4.326-0.597-5.569
	c-1.242-0.338-3.798-0.491-5.569-0.597c-3.883-0.232-8.283-0.495-12.502-2.245c-4.099-1.7-7.307-4.58-10.136-7.121
	c-1.343-1.205-3.506-3.148-4.642-3.711c-1.135,0.563-3.299,2.506-4.64,3.711c-2.83,2.541-6.038,5.421-10.138,7.121
	c-4.219,1.75-8.619,2.013-12.502,2.245c-1.771,0.106-4.326,0.259-5.568,0.597c-0.338,1.243-0.491,3.797-0.597,5.568
	c-0.232,3.883-0.495,8.284-2.245,12.503c-1.699,4.099-4.58,7.306-7.121,10.136c-1.205,1.342-3.148,3.506-3.712,4.641
	c0.563,1.135,2.507,3.299,3.712,4.641c2.541,2.83,5.422,6.037,7.121,10.137c1.749,4.219,2.013,8.619,2.244,12.501
	C220.694,341.421,220.847,343.978,221.186,345.22z M221.355,345.694L221.355,345.694L221.355,345.694z M220.711,345.05
	C220.712,345.05,220.712,345.05,220.711,345.05L220.711,345.05z M207.386,312.68L207.386,312.68L207.386,312.68z M300.681,312.679
	C300.681,312.68,300.681,312.68,300.681,312.679L300.681,312.679z M300.681,312.064L300.681,312.064L300.681,312.064z
	 M207.386,312.064L207.386,312.064L207.386,312.064z M287.355,279.694L287.355,279.694L287.355,279.694z M286.712,279.049
	L286.712,279.049L286.712,279.049z M254.341,265.725L254.341,265.725L254.341,265.725z"/>
<rect x="75.72" y="77.16" style="fill:#4B7C91;" width="235.19" height="55"/>
<path d="M310.904,142.164H75.716c-5.522,0-10-4.477-10-10v-55c0-5.523,4.478-10,10-10h235.188c5.522,0,10,4.477,10,10v55
	C320.904,137.687,316.427,142.164,310.904,142.164z M85.716,122.164h215.188v-35H85.716V122.164z"/>
<path d="M309.85,192.83c-0.649,0-1.31-0.06-1.95-0.19s-1.27-0.32-1.869-0.57c-0.61-0.25-1.19-0.56-1.73-0.92
	c-0.55-0.37-1.06-0.79-1.52-1.25c-0.461-0.46-0.881-0.97-1.24-1.52c-0.36-0.54-0.67-1.12-0.92-1.72c-0.25-0.61-0.44-1.24-0.57-1.87
	c-0.13-0.65-0.2-1.31-0.2-1.96c0-0.65,0.07-1.31,0.2-1.95s0.32-1.27,0.57-1.87c0.25-0.61,0.56-1.19,0.92-1.73
	c0.359-0.55,0.779-1.06,1.24-1.52c0.46-0.46,0.97-0.88,1.52-1.24c0.54-0.36,1.12-0.67,1.73-0.92c0.6-0.25,1.229-0.44,1.869-0.57
	c1.29-0.26,2.62-0.26,3.91,0c0.63,0.13,1.26,0.32,1.87,0.57c0.601,0.25,1.18,0.56,1.72,0.92c0.551,0.36,1.061,0.78,1.521,1.24
	s0.88,0.97,1.25,1.52c0.36,0.54,0.67,1.12,0.92,1.73c0.25,0.6,0.44,1.23,0.57,1.87s0.189,1.3,0.189,1.95s-0.06,1.31-0.189,1.96
	c-0.13,0.63-0.32,1.26-0.57,1.87c-0.25,0.6-0.56,1.18-0.92,1.72c-0.37,0.55-0.79,1.06-1.25,1.52s-0.97,0.88-1.521,1.25
	c-0.54,0.36-1.119,0.67-1.72,0.92c-0.61,0.25-1.24,0.44-1.87,0.57C311.16,192.77,310.5,192.83,309.85,192.83z"/>
<path d="M275.215,192.831H75.716c-5.522,0-10-4.477-10-10s4.478-10,10-10h199.499c5.522,0,10,4.477,10,10
	S280.737,192.831,275.215,192.831z"/>
<path d="M170.924,286.017H75.716c-5.522,0-10-4.477-10-10s4.478-10,10-10h95.208c5.522,0,10,4.477,10,10
	S176.446,286.017,170.924,286.017z"/>
<path d="M170.924,332.609H75.716c-5.522,0-10-4.477-10-10s4.478-10,10-10h95.208c5.522,0,10,4.477,10,10
	S176.446,332.609,170.924,332.609z"/>
<path d="M75.72,239.42c-0.66,0-1.31-0.06-1.96-0.19c-0.64-0.13-1.27-0.32-1.87-0.57c-0.6-0.25-1.18-0.56-1.729-0.92
	c-0.54-0.37-1.061-0.78-1.521-1.25c-0.46-0.46-0.88-0.97-1.24-1.51c-0.359-0.55-0.67-1.13-0.92-1.73
	c-0.25-0.6-0.439-1.23-0.569-1.87c-0.13-0.65-0.19-1.3-0.19-1.96c0-2.63,1.061-5.21,2.92-7.07c0.46-0.46,0.98-0.88,1.521-1.24
	c0.55-0.36,1.13-0.67,1.729-0.92c0.601-0.25,1.23-0.44,1.87-0.57c1.29-0.26,2.62-0.26,3.91,0c0.64,0.13,1.27,0.32,1.87,0.57
	c0.6,0.25,1.18,0.56,1.729,0.92c0.54,0.36,1.05,0.78,1.521,1.24c0.46,0.46,0.88,0.97,1.24,1.52c0.359,0.54,0.67,1.13,0.92,1.73
	c0.25,0.6,0.439,1.23,0.569,1.87s0.2,1.3,0.2,1.95c0,0.66-0.07,1.31-0.2,1.96c-0.13,0.64-0.319,1.27-0.569,1.87
	c-0.25,0.6-0.561,1.18-0.92,1.73c-0.36,0.54-0.78,1.05-1.24,1.51c-0.471,0.47-0.98,0.88-1.521,1.25c-0.55,0.36-1.13,0.67-1.729,0.92
	c-0.601,0.25-1.23,0.44-1.87,0.57C77.02,239.36,76.37,239.42,75.72,239.42z"/>
<path d="M309.852,239.424h-199.5c-5.522,0-10-4.477-10-10s4.478-10,10-10h199.5c5.522,0,10,4.477,10,10
	S315.374,239.424,309.852,239.424z"/>
<g>
</g>
<g>
</g>
<g>
</g>
<g>
</g>
<g>
</g>
<g>
</g>
<g>
</g>
<g>
</g>
<g>
</g>
<g>
</g>
<g>
</g>
<g>
</g>
<g>
</g>
<g>
</g>
<g>
</g>
</svg>
