<?xml version="1.0" encoding="iso-8859-1"?>
<!-- Generator: Adobe Illustrator 19.0.0, SVG Export Plug-In . SVG Version: 6.00 Build 0)  -->
<svg version="1.1" id="Layer_1" xmlns="http://www.w3.org/2000/svg" xmlns:xlink="http://www.w3.org/1999/xlink" x="0px" y="0px"
	 viewBox="0 0 512 512" style="enable-background:new 0 0 512 512;" xml:space="preserve">
<g>
	<g>
		<path d="M503.551,439.29H456.28v-62.196c14.002-1.952,27.08-8.685,36.777-19.161c11.625-12.562,17.534-29.553,16.21-46.618
			l-5.705-73.554c-2.243-28.922-26.723-51.578-55.731-51.578c-29.008,0-53.488,22.655-55.731,51.576l-5.705,73.555
			c-1.324,17.064,4.585,34.056,16.21,46.618c9.695,10.476,22.774,17.208,36.777,19.161v62.196h-76.335l3.371-27.714
			c0.292-2.401-0.46-4.812-2.063-6.622c-1.603-1.81-3.906-2.847-6.325-2.847h-51.771c10.001-7.647,18.311-17.645,24.128-29.516
			c1.283-2.619,1.125-5.714-0.418-8.189c-1.543-2.475-4.253-3.979-7.169-3.979H264.45v-10.788
			c17.528-2.689,32.66-13.666,40.661-29.993c1.283-2.619,1.125-5.714-0.418-8.189c-1.543-2.474-4.253-3.978-7.169-3.978h-83.046
			c-2.917,0-5.626,1.504-7.169,3.978c-1.543,2.475-1.701,5.57-0.418,8.189c8,16.326,23.133,27.303,40.661,29.993v10.788h-58.349
			c-2.917,0-5.626,1.504-7.169,3.979c-1.543,2.474-1.701,5.57-0.418,8.189c5.816,11.871,14.127,21.869,24.128,29.516h-51.771
			c-2.419,0-4.721,1.036-6.325,2.847s-2.354,4.221-2.063,6.622l3.371,27.714H72.619v-62.196
			c14.003-1.952,27.082-8.685,36.777-19.162c11.625-12.562,17.534-29.553,16.21-46.619l-5.705-73.554
			c-2.243-28.922-26.722-51.578-55.731-51.578s-53.488,22.655-55.731,51.576l-5.705,73.555c-1.324,17.064,4.585,34.056,16.21,46.618
			c9.695,10.476,22.774,17.208,36.777,19.161v62.196H8.449c-4.666,0-8.449,3.783-8.449,8.449c0,4.666,3.783,8.45,8.449,8.45h495.102
			c4.666,0,8.449-3.783,8.449-8.449C512,443.073,508.217,439.29,503.551,439.29z M64.169,274.812c-4.666,0-8.449,3.783-8.449,8.449
			v3.631l-10.924-10.924c-3.3-3.3-8.65-3.3-11.948,0c-3.3,3.3-3.3,8.65,0,11.948l22.873,22.873v20.038l-10.924-10.924
			c-3.3-3.3-8.65-3.3-11.948,0c-3.3,3.3-3.3,8.65,0,11.948l22.873,22.873v5.279c-9.31-1.756-17.766-6.407-24.374-13.548
			c-8.561-9.25-12.739-21.266-11.765-33.834l5.705-73.555c1.565-20.178,18.645-35.985,38.883-35.985
			c20.239,0,37.319,15.807,38.883,35.985l5.705,73.555c0.974,12.567-3.204,24.583-11.765,33.834
			c-6.608,7.141-15.066,11.792-24.374,13.549v-8.776c0-0.001,0-0.003,0-0.006v-21.282l22.873-22.873c3.3-3.3,3.3-8.65,0-11.948
			c-3.3-3.3-8.65-3.3-11.948,0l-10.924,10.924v-22.783C72.619,278.595,68.836,274.812,64.169,274.812z M231.458,324.373h49.083
			c-6.697,5.738-15.311,9.013-24.541,9.013C246.769,333.386,238.155,330.111,231.458,324.373z M204.46,377.322H307.54
			c-12.336,15.553-31.07,24.784-51.54,24.784C235.528,402.106,216.794,392.876,204.46,377.322z M346.024,439.289H165.977
			l-2.467-20.284h184.98L346.024,439.289z M447.831,274.813c-4.666,0-8.449,3.783-8.449,8.449v22.783l-10.924-10.924
			c-3.3-3.3-8.65-3.3-11.948,0c-3.3,3.3-3.3,8.65,0,11.948l22.873,22.873v21.282c0,0.001,0,0.003,0,0.006v8.776
			c-9.31-1.757-17.766-6.409-24.375-13.55c-8.561-9.25-12.739-21.266-11.765-33.834l5.705-73.555
			c1.565-20.178,18.644-35.985,38.883-35.985c20.239,0,37.319,15.807,38.883,35.985l5.705,73.555
			c0.974,12.567-3.204,24.583-11.765,33.834c-6.608,7.14-15.064,11.792-24.374,13.549v-5.279l22.873-22.873
			c3.3-3.3,3.3-8.65,0-11.948c-3.3-3.3-8.65-3.3-11.948,0l-10.924,10.924V310.79l22.873-22.873c3.3-3.3,3.3-8.65,0-11.948
			c-3.3-3.3-8.65-3.3-11.948,0l-10.924,10.924v-3.631C456.28,278.596,452.497,274.813,447.831,274.813z"/>
	</g>
</g>
<g>
	<g>
		<path d="M503.551,471.395H8.449c-4.666,0-8.449,3.783-8.449,8.449c0,4.666,3.783,8.449,8.449,8.449h495.102
			c4.666,0,8.449-3.783,8.449-8.449C512,475.178,508.217,471.395,503.551,471.395z"/>
	</g>
</g>
<g>
	<g>
		<path d="M299.936,242.433c-18.382,0-34.584,9.517-43.936,23.884c-9.352-14.367-25.554-23.884-43.936-23.884
			c-28.885,0-52.385,23.5-52.385,52.385v28.164c0,4.666,3.783,8.449,8.449,8.449c4.666,0,8.449-3.783,8.449-8.449v-28.164
			c0-19.567,15.919-35.487,35.487-35.487c19.567,0,35.487,15.919,35.487,35.487c0,4.666,3.783,8.449,8.449,8.449
			c4.666,0,8.449-3.783,8.449-8.449c0-19.567,15.919-35.487,35.487-35.487s35.487,15.919,35.487,35.487v28.164
			c0,4.666,3.783,8.449,8.449,8.449c4.666,0,8.449-3.783,8.449-8.449v-28.164C352.322,265.934,328.821,242.433,299.936,242.433z"/>
	</g>
</g>
<g>
	<g>
		<path d="M419.357,125.914c0.31-1.441,0.472-2.935,0.472-4.467c0-11.715-9.531-21.246-21.247-21.246h-73.867
			c-11.715,0-21.247,9.531-21.247,21.246c0,11.716,9.531,21.247,21.247,21.247h27.472c-0.293,1.404-0.447,2.859-0.447,4.349
			c0,11.715,9.531,21.246,21.247,21.246h44.12c11.715,0,21.246-9.531,21.246-21.246
			C438.353,136.086,430.019,127.041,419.357,125.914z M417.106,151.39h-44.12c-2.397,0-4.349-1.95-4.349-4.347
			s1.95-4.349,4.349-4.349c4.666,0,8.449-3.783,8.449-8.449s-3.783-8.449-8.449-8.449h-48.272c-2.397,0-4.349-1.95-4.349-4.349
			c0.001-2.396,1.951-4.347,4.35-4.347h73.867c2.397,0,4.349,1.95,4.349,4.347s-1.95,4.349-4.349,4.349
			c-4.666,0-8.449,3.783-8.449,8.449s3.783,8.449,8.449,8.449h18.524c2.397,0,4.347,1.95,4.347,4.349
			C421.453,149.44,419.503,151.39,417.106,151.39z"/>
	</g>
</g>
<g>
	<g>
		<path d="M157.153,23.707c-35.873,0-65.057,29.185-65.057,65.057s29.184,65.057,65.057,65.057
			c35.872,0,65.057-29.184,65.057-65.057S193.026,23.707,157.153,23.707z M157.153,136.924c-26.555,0-48.159-21.603-48.159-48.159
			c0-26.555,21.603-48.158,48.159-48.158c26.554,0,48.158,21.603,48.158,48.158C205.311,115.321,183.708,136.924,157.153,136.924z"
			/>
	</g>
</g>
<g>
</g>
<g>
</g>
<g>
</g>
<g>
</g>
<g>
</g>
<g>
</g>
<g>
</g>
<g>
</g>
<g>
</g>
<g>
</g>
<g>
</g>
<g>
</g>
<g>
</g>
<g>
</g>
<g>
</g>
</svg>
