<?xml version="1.0" encoding="iso-8859-1"?>
<!-- Generator: Adobe Illustrator 19.0.0, SVG Export Plug-In . SVG Version: 6.00 Build 0)  -->
<svg version="1.1" id="Capa_1" xmlns="http://www.w3.org/2000/svg" xmlns:xlink="http://www.w3.org/1999/xlink" x="0px" y="0px"
	 viewBox="0 0 511.999 511.999" style="enable-background:new 0 0 511.999 511.999;" xml:space="preserve">
<g>
	<g>
		<path d="M308.746,186.507c-11.026,0-19.997,8.97-19.997,19.997c0,4.156,3.369,7.524,7.524,7.524c4.155,0,7.524-3.368,7.524-7.524
			c0-2.73,2.22-4.95,4.95-4.95s4.95,2.22,4.95,4.95c0,4.156,3.369,7.524,7.524,7.524c4.155,0,7.524-3.368,7.524-7.524
			C328.742,195.477,319.771,186.507,308.746,186.507z"/>
	</g>
</g>
<g>
	<g>
		<path d="M195.389,186.507c-11.026,0-19.997,8.97-19.997,19.997c0,4.156,3.369,7.524,7.524,7.524c4.155,0,7.524-3.368,7.524-7.524
			c0-2.73,2.22-4.95,4.95-4.95c2.73,0,4.95,2.22,4.95,4.95c0,4.156,3.369,7.524,7.524,7.524c4.155,0,7.524-3.368,7.524-7.524
			C215.385,195.477,206.415,186.507,195.389,186.507z"/>
	</g>
</g>
<g>
	<g>
		<path d="M369.187,359.99c-0.794-17.069-4.826-30.286-8.275-38.669c-0.458-1.115-3.308-7.9-6.829-13.26
			c13.049-18.578,21.049-40.944,22.002-65.092c14.742-3.487,25.748-16.749,25.748-32.54c0-15.755-10.953-28.991-25.643-32.516
			v-2.138v-19.789c0-2.85-0.105-5.69-0.304-8.516c-0.008-0.11-0.013-0.221-0.025-0.33c-1.847-25.247-11.556-49.346-27.878-68.973
			l3.605-15.15c0.568-2.388-0.063-4.902-1.693-6.737c-1.629-1.836-4.053-2.764-6.488-2.479l-19.433,2.242
			c-13.76-9.663-29.084-16.255-45.245-19.576L216.651,0.991c-2.025-1.157-4.472-1.308-6.625-0.413
			c-2.153,0.897-3.769,2.74-4.374,4.993c-1.32,4.91-3.031,10.616-4.355,14.451c-5.106-1.417-13.184-3.795-20.527-6.024
			c-2.51-0.759-5.235-0.161-7.195,1.586c-1.957,1.746-2.863,4.387-2.391,6.967l6.982,38.155
			c-28.763,23.009-46.012,58.018-46.012,95.281v19.789v1.503c-16.389,2.144-29.086,16.188-29.086,33.151
			c0,17.007,12.765,31.081,29.216,33.167c1.035,23.23,8.592,44.792,20.887,62.892c-4.008,5.503-7.409,13.606-7.915,14.833
			c-3.384,8.225-7.336,21.097-8.234,37.702c-23.067,3.542-40.789,23.522-40.789,47.564v20.172c0,4.156,3.369,7.524,7.524,7.524
			c4.155,0,7.524-3.368,7.524-7.524v-20.172c0-18.237,14.838-33.074,33.074-33.074h16.34c4.155,0,7.524-3.368,7.524-7.524
			s-3.369-7.524-7.524-7.524h-8.569c0.62-9.623,2.365-17.733,4.434-24.266c0.406,1.912,0.957,3.892,1.702,5.941
			c9.621,26.447,44.006,48.903,102.201,66.742c0.734,0.226,1.478,0.332,2.208,0.332c3.219,0,6.198-2.083,7.191-5.321
			c0.626-2.04,0.335-4.141-0.629-5.868c47.785-16.873,75.104-36.399,81.263-58.159c0.034-0.12,0.054-0.237,0.087-0.356
			c1.629,5.899,2.937,12.893,3.457,20.956h-5.954c-4.155,0-7.524,3.368-7.524,7.524s3.369,7.524,7.524,7.524h11.166
			c17.036,0,33.074,25.088,33.074,44.532v78.908h-49.93v-34.613c0-4.156-3.369-7.524-7.524-7.524c-4.155,0-7.524,3.368-7.524,7.524
			v34.613H170.533v-34.613c0-4.156-3.369-7.524-7.524-7.524c-4.155,0-7.524,3.368-7.524,7.524v34.613h-44.203v-41.657
			c0-4.156-3.369-7.524-7.524-7.524c-4.155,0-7.524,3.368-7.524,7.524v49.181c0,4.156,3.369,7.524,7.524,7.524h296.094
			c4.155,0,7.524-3.368,7.524-7.524v-86.432C407.376,394.508,391.046,366.714,369.187,359.99z M376.19,224.736v-30.942
			c6.25,2.943,10.595,9.283,10.595,16.636c0,7.353-4.346,13.693-10.595,16.636V224.736z M132.155,224.736v3.548
			c-8.044-1.966-14.039-9.214-14.039-17.854c0-8.64,5.995-15.889,14.039-17.853V224.736z M361.142,182.506
			c-0.177,0.639-0.278,1.309-0.278,2.004s0.102,1.365,0.278,2.004v35.004h-81.88v-40.013h0h36.464h45.417V182.506z M361.143,166.457
			h-45.417h-42.194h-40.495v0.002h-27.086h-45.892c8.402-5.852,15.607-16.211,16.005-24.175c0.614-12.281,2.383-18.704,10.35-19.728
			c12.184-1.567,19.971-9.203,24.715-16.467c1.3,1.908,2.741,3.9,4.299,5.877c10.679,13.552,21.363,19.457,31.755,17.536
			c11.255-2.075,12.193-0.877,19.496,8.445c1.085,1.385,2.254,2.876,3.55,4.468c12.462,15.3,32.56,8.735,45.859,4.392
			c1.589-0.52,3.135-1.024,4.617-1.481c4.71-1.449,8.898,1.369,15.34,6.086c6.217,4.55,14.76,10.792,25.098,8.626V166.457z
			 M147.205,155.986c-0.002-38.425,20.934-74.135,54.637-93.197c3.616-2.045,4.89-6.636,2.845-10.253
			c-2.046-3.616-6.635-4.888-10.253-2.845c-0.91,0.515-1.803,1.049-2.695,1.585l-3.54-19.348c14.76,4.337,16.151,4.337,17.131,4.337
			c6.707,0,8.794-6.663,11.682-15.884c0.166-0.527,0.328-1.054,0.487-1.574l27.187,15.539c-4.659,0.363-9.291,0.986-13.849,1.879
			c-4.078,0.798-6.737,4.75-5.939,8.829c0.797,4.077,4.756,6.734,8.828,5.939c6.696-1.31,13.576-1.974,20.447-1.974
			c6.857,0,13.618,0.66,20.228,1.933c0.124,0.028,0.25,0.046,0.374,0.067c15.339,3.011,29.838,9.389,42.697,18.887
			c1.533,1.134,3.438,1.642,5.333,1.422l11.66-1.345l-2.007,8.435c-0.568,2.387,0.063,4.9,1.692,6.735
			c14.806,16.685,23.927,37.381,26.332,59.227c-4.656,2.513-8.099,0.345-15.547-5.108c-7.344-5.376-16.485-12.067-28.649-8.328
			c-1.564,0.481-3.193,1.013-4.868,1.56c-13.807,4.51-24.006,7.18-29.52,0.409c-1.232-1.513-2.341-2.929-3.373-4.245
			c-8.85-11.296-14.795-17.512-34.067-13.963c-8.393,1.524-21.325-15.809-27.428-28.018c-1.398-2.807-4.396-4.442-7.511-4.115
			c-3.119,0.321-5.715,2.559-6.51,5.592c-0.046,0.177-4.795,17.705-18.51,19.468c-21.905,2.818-22.994,24.598-23.46,33.9
			c-0.087,1.759-3.128,7.481-8.386,11.699c-2.927,2.348-4.84,2.813-5.446,2.835V155.986z M147.203,181.506h58.749h21.357v40.012
			h-80.106V181.506z M205.318,367.848c-20.62-12.084-29.361-23.513-32.746-32.399c-1.179-3.094-1.695-5.913-1.834-8.404
			c10.077,9.458,21.754,17.226,34.58,22.853V367.848z M279.249,376.168c-8.861,3.593-19.075,7.25-30.849,10.92
			c-10.733-3.774-20.014-7.579-28.035-11.36v-20.381c10.74,3.102,22.082,4.768,33.807,4.768c8.593,0,16.98-0.898,25.077-2.596
			V376.168z M335.922,334.101c-2.309,7.681-11.112,20.724-41.626,35.431V353.33c15.882-5.546,30.277-14.286,42.412-25.45
			C336.801,329.723,336.611,331.808,335.922,334.101z M254.171,345.068c-58.983,0-106.97-47.987-106.97-106.97v-1.534h0.002h81.988
			c7.259,0,13.164-5.906,13.164-13.164v-41.895h21.86V223.4c0,7.259,5.906,13.164,13.164,13.164h83.496
			c0.017,0.614,0.108,1.209,0.264,1.778C361.006,297.214,313.073,345.068,254.171,345.068z"/>
	</g>
</g>
<g>
	<g>
		<path d="M247.009,410.874c-26.041-4.17-42.64-16.608-48.094-20.695c-1.742-1.306-2.703-2.025-4.296-2.447
			c-4.018-1.068-8.136,1.328-9.2,5.346c-0.901,3.401,0.677,6.876,3.619,8.506c0.219,0.158,0.503,0.373,0.853,0.636
			c16.607,12.444,35.024,20.354,54.739,23.511c0.402,0.064,0.804,0.096,1.199,0.096c3.631,0,6.827-2.635,7.419-6.335
			C253.905,415.39,251.112,411.53,247.009,410.874z"/>
	</g>
</g>
<g>
	<g>
		<path d="M108.915,82.899c0.208-1.618,0.326-3.263,0.326-4.937c0-21.318-17.344-38.661-38.662-38.661
			c-8.805,0-16.927,2.964-23.434,7.94c-16.38-6.296-25.155-6.116-28.96,0.471c-4.55,7.88,3.305,16.18,11.591,23.259
			c0.788,0.671,1.618,1.356,2.469,2.046c-0.208,1.62-0.327,3.266-0.327,4.942c0,21.318,17.344,38.661,38.661,38.661
			c8.805,0,16.926-2.964,23.433-7.938c1.028,0.393,2.04,0.771,3.023,1.12c5.37,1.901,10.969,3.532,15.74,3.532
			c4.358,0,8.025-1.361,10.197-5.122C126.779,101.624,122.563,93.941,108.915,82.899z M70.58,101.574
			c-10.816,0-19.95-7.312-22.736-17.251c4.42,2.911,9.145,5.827,14.059,8.665c4.919,2.84,9.809,5.474,14.543,7.848
			C74.57,101.317,72.604,101.574,70.58,101.574z M90.368,90.823c-6.032-2.746-13.071-6.323-20.94-10.866
			c-7.871-4.544-14.49-8.853-19.884-12.704c3.911-7.652,11.868-12.906,21.035-12.906c13.021,0,23.614,10.592,23.614,23.613
			C94.194,82.702,92.784,87.119,90.368,90.823z"/>
	</g>
</g>
<g>
	<g>
		<path d="M493.215,164.305c2.183-2.421,2.558-5.972,0.931-8.796c-1.627-2.824-4.887-4.282-8.077-3.603l-14.931,3.162
			c-4.767,1.008-9.609-1.149-12.043-5.371l-7.623-13.224c-1.627-2.824-4.887-4.283-8.077-3.603
			c-3.189,0.675-5.581,3.326-5.923,6.569l-1.606,15.178c-0.513,4.848-4.062,8.785-8.832,9.795l-14.931,3.163
			c-3.188,0.675-5.58,3.326-5.923,6.569s1.441,6.335,4.417,7.663l13.939,6.217c4.452,1.985,7.098,6.578,6.586,11.426l-1.606,15.177
			c-0.343,3.241,1.44,6.334,4.417,7.663c0.986,0.439,2.029,0.652,3.063,0.652c2.086,0,4.131-0.867,5.59-2.486l10.22-11.335
			c3.265-3.621,8.451-4.718,12.902-2.733l13.938,6.217c2.978,1.327,6.469,0.587,8.652-1.833c2.183-2.421,2.558-5.972,0.93-8.796
			l-7.621-13.223c-2.435-4.224-1.877-9.495,1.387-13.115L493.215,164.305z M466.209,190.856c-7.022-1.397-14.305,0.148-20.158,4.269
			c-0.845-7.108-4.563-13.558-10.289-17.852c6.499-3,11.484-8.529,13.797-15.303c4.862,5.254,11.661,8.286,18.819,8.393
			C464.883,176.612,464.099,184.014,466.209,190.856z"/>
	</g>
</g>
<g>
	<g>
		<path d="M430.765,42.608c-19.493,0-35.353,15.86-35.353,35.352c0,19.494,15.86,35.353,35.353,35.353
			c19.493,0,35.353-15.86,35.353-35.353S450.259,42.608,430.765,42.608z M430.765,98.266c-11.196,0-20.306-9.11-20.306-20.306
			s9.11-20.305,20.306-20.305c11.196,0,20.306,9.109,20.306,20.305S441.962,98.266,430.765,98.266z"/>
	</g>
</g>
<g>
	<g>
		<path d="M55.529,167.88c-16.081,0-29.163,13.082-29.163,29.163s13.082,29.163,29.163,29.163s29.163-13.082,29.163-29.163
			S71.609,167.88,55.529,167.88z M55.529,211.158c-7.783,0-14.115-6.333-14.115-14.115s6.332-14.115,14.115-14.115
			c7.784,0,14.115,6.333,14.115,14.115S63.312,211.158,55.529,211.158z"/>
	</g>
</g>
<g>
	<g>
		<path d="M300.54,273.042c-2.669-3.168-6.574-4.986-10.714-4.986h-73.091c-4.14,0-8.045,1.818-10.715,4.987
			c-2.641,3.136-3.759,7.241-3.066,11.262c4.23,24.536,25.395,42.344,50.326,42.344c24.932,0,46.097-17.808,50.325-42.344
			C304.3,280.283,303.182,276.178,300.54,273.042z M253.282,311.602c-7.796,0-15.063-2.473-21.005-6.725h42.009
			C268.345,309.129,261.077,311.602,253.282,311.602z M286.384,289.83h-66.206c-0.914-2.136-1.638-4.382-2.134-6.725h70.474
			C288.023,285.448,287.298,287.694,286.384,289.83z"/>
	</g>
</g>
<g>
	<g>
		<path d="M254.063,211.991c-4.155,0-7.524,3.368-7.524,7.524v20.686c0,2.578-3.833,5.461-8.963,5.461
			c-4.155,0-7.524,3.368-7.524,7.524s3.369,7.524,7.524,7.524c13.24,0,24.01-9.2,24.01-20.508v-20.686
			C261.586,215.359,258.218,211.991,254.063,211.991z"/>
	</g>
</g>
<g>
</g>
<g>
</g>
<g>
</g>
<g>
</g>
<g>
</g>
<g>
</g>
<g>
</g>
<g>
</g>
<g>
</g>
<g>
</g>
<g>
</g>
<g>
</g>
<g>
</g>
<g>
</g>
<g>
</g>
</svg>
