<?xml version="1.0" encoding="UTF-8" standalone="no"?>
<!-- Created with Inkscape (http://www.inkscape.org/) -->

<svg
   xmlns:dc="http://purl.org/dc/elements/1.1/"
   xmlns:cc="http://creativecommons.org/ns#"
   xmlns:rdf="http://www.w3.org/1999/02/22-rdf-syntax-ns#"
   xmlns:svg="http://www.w3.org/2000/svg"
   xmlns="http://www.w3.org/2000/svg"
   xmlns:sodipodi="http://sodipodi.sourceforge.net/DTD/sodipodi-0.dtd"
   xmlns:inkscape="http://www.inkscape.org/namespaces/inkscape"
   version="1.1"
   id="svg815"
   width="334.56573"
   height="333.21289"
   viewBox="0 0 334.56573 333.21289"
   sodipodi:docname="logo.svg"
   inkscape:version="0.92.2 (5c3e80d, 2017-08-06)">
  <metadata
     id="metadata821">
    <rdf:RDF>
      <cc:Work
         rdf:about="">
        <dc:format>image/svg+xml</dc:format>
        <dc:type
           rdf:resource="http://purl.org/dc/dcmitype/StillImage" />
        <dc:title></dc:title>
      </cc:Work>
    </rdf:RDF>
  </metadata>
  <defs
     id="defs819" />
  <sodipodi:namedview
     pagecolor="#ffffff"
     bordercolor="#666666"
     borderopacity="1"
     objecttolerance="10"
     gridtolerance="10"
     guidetolerance="10"
     inkscape:pageopacity="0"
     inkscape:pageshadow="2"
     inkscape:window-width="2160"
     inkscape:window-height="1346"
     id="namedview817"
     showgrid="false"
     inkscape:pagecheckerboard="true"
     fit-margin-top="0"
     fit-margin-left="0"
     fit-margin-right="0"
     fit-margin-bottom="0"
     inkscape:zoom="2.186"
     inkscape:cx="167.03982"
     inkscape:cy="148.43677"
     inkscape:window-x="-11"
     inkscape:window-y="-11"
     inkscape:window-maximized="1"
     inkscape:current-layer="svg815" />
  <path
     style="fill:#ffffff"
     d="M 141.09677,331.96054 C 123.91974,329.17385 104.18131,322.59257 89.497278,314.75599 23.249348,279.40077 -11.495197,205.95523 3.4265906,132.81349 16.79262,67.297584 67.623888,16.538354 134.11917,2.306135 c 9.58799,-2.052152 13.54656,-2.325535 33.37811,-2.305127 24.70198,0.02542 33.40096,1.277265 52.5,7.555117 12.57066,4.131973 33.23414,14.657519 44.5,22.667379 11.65083,8.28356 30.54719,26.99036 38.13957,37.75698 35.71843,50.651626 41.88514,114.214196 16.39577,168.997366 -22.19436,47.70137 -65.86413,82.30478 -118.03534,93.52982 -13.18502,2.83686 -46.40335,3.64256 -59.90051,1.45287 z m 56.40051,-13.99535 c 29.6237,-6.57533 54.80014,-19.75068 75.273,-39.39191 24.45154,-23.45829 38.77798,-49.10371 45.86141,-82.09543 3.26709,-15.21675 3.26914,-44.765 0.004,-60 -3.88685,-18.13673 -11.6411,-37.642306 -20.77513,-52.259136 -8.37192,-13.39728 -24.88181,-31.23362 -38.14998,-41.21507 -25.6961,-19.33092 -53.80283,-29.122828 -86.7133,-30.209513 -28.40994,-0.938079 -48.81921,3.28927 -73.000002,15.120413 -16.22499,7.93853 -28.16224,16.33928 -40.58775,28.56331 -24.06115,23.67101 -39.11675,52.739856 -44.535713,85.988106 -2.011442,12.34128 -2.011442,35.6825 0,48.02378 10.754663,65.9856 62.463473,117.83107 128.123465,128.46205 12.03332,1.94831 43.8743,1.3719 54.5,-0.9866 z m -49,-4.09919 c -18.95704,-3.42896 -22.61322,-4.39697 -36.35255,-9.62475 -7.77045,-2.95663 -7.84618,-3.01973 -7.24313,-6.03499 1.01797,-5.08986 7.4004,-17.37928 10.78205,-20.76093 l 3.18412,-3.18413 11.13358,0.69565 c 12.49083,0.78046 18.99629,-0.32941 19.97326,-3.40757 0.32887,-1.03618 0.49166,-3.46214 0.36176,-5.39101 -0.19002,-2.82157 0.38899,-4.09106 2.96236,-6.49495 3.59593,-3.3591 3.87037,-4.38302 1.66524,-6.21312 -1.35965,-1.12841 -1.2844,-1.53749 0.66447,-3.61196 2.06044,-2.19324 2.09377,-2.45437 0.53331,-4.17865 -2.20341,-2.43475 -2.10087,-4.47683 0.33553,-6.68174 2.99055,-2.70641 2.47196,-4.6242 -2.58021,-9.54179 -6.66879,-6.49117 -7.70292,-8.87092 -6.23686,-14.35236 2.23068,-8.34024 -2.7468,-34.58688 -7.98505,-42.10585 -3.66323,-5.25818 -8.84277,-7.97976 -19.13802,-10.05604 -15.6917,-3.1646 -25.970682,-0.81641 -42.221562,9.64533 -22.09853,14.22626 -34.80636,16.80778 -47.14454,9.57713 -12.45457,-7.29886 -16.367572,-27.13471 -7.37359,-37.3783 9.83499,-11.20142 28.55988,-7.05685 30.40919,6.73078 0.46834,3.49172 0.13684,4.3149 -3.00144,7.45318 -1.94035,1.94035 -4.49337,3.52792 -5.67337,3.52792 -2.24495,0 -7.05455,-4.10447 -7.05455,-6.02029 0,-2.07303 2.0635,-4.97971 3.53518,-4.97971 1.90471,0 1.88353,2.40761 -0.0352,4 -2.23455,1.85452 -1.81824,3.92851 1.00396,5.00151 3.21232,1.22132 6.89417,-0.38513 8.38577,-3.65883 1.69439,-3.7188 1.35138,-5.90268 -1.45001,-9.23195 -4.62938,-5.50171 -13.14798,-5.33581 -18.85091,0.36712 -5.43746,5.43747 -5.41079,13.01497 0.0687,19.52701 3.70457,4.40264 7.43553,5.99525 14.04279,5.99435 7.2811,-9.9e-4 14.73402,-3.40228 25.47164,-11.62448 4.21959,-3.2311 10.96959,-8.39851 15,-11.48313 13.79317,-10.55636 24.139022,-14.8916 35.538182,-14.8916 5.00337,0 5.2899,-0.1381 5.2899,-2.54966 0,-7.767 -9.74175,-16.00697 -21.91797,-18.53911 -10.425602,-2.16809 -24.115582,2.059 -36.082032,11.14114 -10.98537,8.33753 -16.86964,9.61856 -25.57086,5.56686 -11.47432,-5.34298 -16.09923,-17.84283 -10.02936,-27.10662 6.02024,-9.188036 22.60022,-6.858096 22.60022,3.17595 0,3.6796 -2.90342,7.31144 -5.84501,7.31144 -2.44725,0 -5.55072,-3.52636 -4.80766,-5.46275 1.00121,-2.60911 2.65267,-1.69845 2.65267,1.46275 0,3.53479 2.67547,4.12107 5.34501,1.17126 2.13966,-2.36429 2.10375,-5.40918 -0.095,-8.05746 -6.50873,-7.839386 -19.92789,2.54135 -15.86261,12.27093 2.79322,6.68511 10.36676,9.99831 16.7542,7.32947 1.90569,-0.79625 6.81594,-4.44346 10.91165,-8.10491 8.84599,-7.90804 18.73882,-13.18951 26.52862,-14.16279 l 5.60713,-0.70056 -0.66149,-4.411156 c -1.61691,-10.78232 -7.30548,-22.53818 -13.01236,-26.89103 -6.44531,-4.91608 -13.68438,-4.19938 -19.4015,1.92084 -4.61495,4.94033 -2.26385,14.40739 4.25916,17.15011 7.52777,3.16519 15.41786,-4.77422 9.79846,-9.85971 -2.99527,-2.71067 -5.17127,-2.10964 -5.17127,1.42834 0,2.02198 -0.43028,2.94007 -1.25,2.66714 -3.38637,-1.12753 -0.61972,-6.75047 3.32143,-6.75047 2.91818,0 5.92857,3.59349 5.92857,7.07692 0,2.06748 -0.95897,4.0359 -2.92308,6 -2.42499,2.42499 -3.74557,2.92244 -7.75,2.91934 -7.85429,-0.006 -12.74977,-4.09269 -14.71504,-12.28373 -1.05513,-4.39769 1.16187,-10.51176 5.52997,-15.25059 12.79055,-13.87611 32.73945,-7.49034 41.332342,13.23075 5.73939,13.84009 11.29636,21.58593 17.95705,25.030306 1.67905,0.86827 6.00662,1.79002 9.61683,2.04833 6.17913,0.44211 6.66219,0.31982 8.23827,-2.0856 2.6619,-4.062566 3.76184,-10.602016 2.57599,-15.315036 -2.07797,-8.25864 -8.40611,-13.44164 -21.25812,-17.41122 -12.40265,-3.83079 -18.60421,-10.93278 -18.60421,-21.30544 0,-14.61601 12.88426,-24.59903 24.58311,-19.04757 7.15578,3.39564 9.92746,13.97388 4.96234,18.93899 -4.32477,4.32478 -11.54545,2.29109 -11.54545,-3.25175 0,-2.57818 2.47737,-4.70823 4.55065,-3.91264 2.065,0.79242 0.89387,2.61894 -1.67922,2.61894 -1.48919,0 -1.92767,0.55696 -1.69098,2.14787 0.76714,5.1564 8.39401,4.84693 10.24478,-0.41569 2.0701,-5.8863 -3.11504,-12.00491 -10.17342,-12.00491 -7.62066,0 -11.94332,5.44531 -10.99581,13.85157 0.9202,8.164 6.15544,11.83937 20.04993,14.07595 4.95539,0.79766 10.46407,2.05792 12.2415,2.80058 5.27099,2.20236 11.1789,8.24543 13.05943,13.35821 0.94804,2.57753 2.07301,5.0876 2.49994,5.57794 1.35436,1.5555 22.28025,-20.28518 25.23471,-26.33786 4.39846,-9.01095 3.11853,-19.71287 -3.0217,-25.26552 -2.57858,-2.33183 -8.68405,-4.78814 -11.90154,-4.78814 -3.39158,0 -9.37249,3.39742 -11.82968,6.71977 -4.09183,5.53256 -2.74719,16.51943 2.35602,19.25059 5.31206,2.84292 13.05539,-0.6686 13.05539,-5.9205 0,-4.20992 -2.34699,-5.70775 -5.6019,-3.57505 -1.82532,1.19599 -2.92833,1.39496 -3.66262,0.66067 -1.59467,-1.59467 1.00544,-4.13548 4.23198,-4.13548 3.64276,0 6.03254,2.86805 6.03254,7.23985 0,5.10153 -4.46643,8.76015 -10.69437,8.76015 -3.92169,0 -5.05725,-0.51633 -8.32718,-3.78625 -6.74135,-6.74136 -7.49223,-15.85837 -2.01714,-24.49169 11.08597,-17.480759 42.43226,-8.4111 47.00161,13.59932 1.99568,9.61317 -2.38403,23.03229 -10.8275,33.17466 -2.28754,2.74782 -3.69389,5.15114 -3.12521,5.3407 2.1809,0.72696 14.65284,-3.90042 18.00508,-6.68031 1.93342,-1.60331 5.30716,-6.23191 7.49722,-10.28577 4.52906,-8.38346 14.02702,-18.53316 19.98749,-21.35902 7.5159,-3.5633 16.88613,-2.016 23.34732,3.85533 6.01383,5.46482 8.00676,16.07997 4.19316,22.33448 -6.02356,9.87898 -23.04048,8.28833 -23.04048,-2.1537 0,-3.91846 2.81054,-7.54775 5.84501,-7.54775 2.44725,0 5.55072,3.52636 4.80766,5.46275 -0.93354,2.43276 -2.65267,1.78849 -2.65267,-0.99413 0,-3.24773 -2.51789,-4.2149 -5.03725,-1.93491 -3.82282,3.45961 -1.86774,9.19354 3.71385,10.8921 3.24601,0.98781 8.96257,-1.82736 10.75698,-5.29737 3.7261,-7.20548 0.26332,-15.05588 -7.57167,-17.16562 -8.67648,-2.33634 -15.57881,2.77023 -22.85065,16.90565 -2.72517,5.29734 -6.40498,11.38535 -8.17735,13.52891 -4.67198,5.65045 -13.68859,11.09865 -21.55505,13.02442 -21.00002,5.14099 -26.81757,8.755856 -31.81664,19.769976 -5.42897,11.9613 -3.35706,30.11923 5.43069,47.59368 2.13376,4.24299 4.77271,8.81695 5.86433,10.16434 l 1.98476,2.4498 1.75839,-3.4498 c 3.57273,-7.00936 9.05663,-13.35419 17.78915,-20.58194 11.32458,-9.37314 12.91354,-11.42591 13.49027,-17.42812 1.09932,-11.44077 -11.19067,-22.23047 -21.72616,-19.07396 -9.14373,2.73953 -11.74342,12.5983 -5.07936,19.26235 5.32928,5.32928 14.27571,3.07827 14.27571,-3.59192 0,-3.33772 -2.06908,-5.70501 -4.66249,-5.33447 -1.45718,0.2082 -2.08751,1.02648 -2.08751,2.70994 0,1.32643 -0.5625,2.60143 -1.25,2.83334 -1.62452,0.54798 -1.6649,-3.93012 -0.05,-5.54502 2.00506,-2.00506 5.53753,-1.34914 7.72742,1.43486 2.39061,3.03916 2.52774,4.27207 0.87789,7.89308 -2.54968,5.59594 -11.83792,7.25682 -17.90743,3.20213 -9.00898,-6.0184 -9.21619,-19.20066 -0.41584,-26.45466 5.82979,-4.8054 16.73639,-6.98628 24.73651,-4.94631 2.34948,0.59911 2.93798,0.26889 4.33482,-2.4323 2.57298,-4.975596 9.59611,-12.038586 13.94663,-14.025786 5.40444,-2.46859 12.81835,-2.3794 18.18549,0.21878 13.63345,6.59984 16.04951,25.537296 3.98827,31.260726 -8.36412,3.96904 -17.67376,-0.0144 -17.67376,-7.56227 0,-3.07471 2.66872,-6.80602 4.8067,-6.72057 1.27882,0.0511 1.13723,0.33567 -0.57844,1.16251 -5.35051,2.57861 -2.78034,10.94497 3.55693,11.57842 9.64786,0.96436 15.91797,-12.05444 8.9495,-18.582066 -6.93002,-6.49161 -18.62614,-5.18976 -22.26484,2.478226 -2.03276,4.28373 -1.50636,8.73991 2.22027,18.79523 1.89893,5.12376 2.62318,9.07654 2.70208,14.74731 0.0593,4.26101 0.29655,7.74851 0.52723,7.75 0.23069,0.001 4.76762,-1.59453 10.08207,-3.5467 15.91199,-5.84496 18.98518,-9.65478 22.94973,-28.45061 3.31999,-15.739956 6.22339,-21.472326 12.54641,-24.771126 8.31295,-4.33696 18.45015,-3.21539 24.84401,2.74873 3.64544,3.40044 4.0479,4.27687 4.42286,9.63162 0.34747,4.962266 0.0388,6.442446 -1.95861,9.390776 -2.99674,4.42351 -9.39126,6.96558 -13.17971,5.23945 -5.9894,-2.72895 -7.16301,-10.12648 -1.98113,-12.487496 2.28982,-1.04331 2.81828,-0.89797 4.56118,1.254416 1.28626,1.58846 1.57092,2.56791 0.81915,2.8185 -0.63368,0.21123 -1.77227,-0.45046 -2.5302,-1.47041 -1.09475,-1.47322 -1.74986,-1.62788 -3.18662,-0.75233 -2.5945,1.58107 -2.76406,4.94238 -0.37006,7.33638 5.12607,5.12607 13.06149,0.0169 13.06149,-8.40948 0,-3.384236 -0.62713,-4.988856 -2.90121,-7.423266 -2.47549,-2.65003 -3.61271,-3.10521 -7.75,-3.10202 -12.19486,0.009 -16.31808,8.47512 -13.14373,26.986476 2.12146,12.37144 -1.36499,19.92511 -12.52616,27.13892 -3.33011,2.15235 -6.20969,4.06832 -6.39908,4.25771 -0.48631,0.4863 21.01831,15.68474 28.4921,20.13685 11.22204,6.68493 22.52884,5.7056 27.95815,-2.42158 4.95103,-7.41125 1.60671,-16.85726 -6.76651,-19.11193 -7.12129,-1.91757 -12.96356,2.10285 -12.96356,8.92102 0,3.78075 3.74587,6.62037 7.49271,5.67997 2.89355,-0.72623 3.17741,-2.19323 0.90933,-4.69943 -2.26568,-2.50354 -0.76883,-4.53367 1.69724,-2.30191 2.4293,2.1985 2.40283,3.90805 -0.0993,6.41016 -2.7429,2.7429 -6.22073,2.50654 -9.36364,-0.63636 -3.19941,-3.19942 -3.44233,-7.52955 -0.67684,-12.06509 5.45989,-8.95453 19.43253,-8.44529 26.40183,0.96222 2.84194,3.8362 3.46536,14.28599 1.20534,20.20379 -3.11011,8.1437 -12.36357,14.51382 -21.10659,14.52986 -5.8026,0.0106 -15.0055,-3.0963 -23.4601,-7.92026 -16.27355,-9.28523 -19.23643,-10.3925 -32.21004,-12.0374 -22.72753,-2.88157 -34.98023,5.63333 -44.49991,30.92479 -1.94202,5.15949 -2.32724,7.58521 -1.8329,11.5418 0.60588,4.84928 0.44936,5.26495 -4.89628,13.00303 -3.0372,4.39649 -5.53088,8.78773 -5.54152,9.75832 -0.0166,1.50996 4.24195,4.96438 7.48065,6.06818 0.63162,0.21526 0.50922,1.7081 -0.33224,4.05241 -0.99336,2.76745 -1.046,4.0565 -0.20694,5.0675 0.63518,0.76535 0.83715,2.50397 0.46372,3.99185 -0.463,1.84474 -0.1201,3.23428 1.14238,4.62931 1.71441,1.8944 1.72005,2.22748 0.11358,6.7097 -2.27243,6.34029 -2.14538,7.67257 1.0695,11.21492 2.39356,2.63737 3.7579,3.15513 10.52605,3.99453 4.27682,0.53043 8.66285,1.43902 9.74673,2.01909 3.61087,1.93248 7.60653,12.44441 9.37217,24.65666 l 0.60273,4.16886 -6.24884,2.07464 c -15.04856,4.99619 -23.45137,6.26439 -43.74884,6.60284 -10.725,0.17884 -20.625,0.12167 -22,-0.12704 z M 55.519518,163.22785 c 0.0328,-4.79223 4.8187,-9.75 9.41202,-9.75 4.14403,0 0.0808,9.46903 -4.96856,11.57878 -4.51495,1.88646 -4.46901,1.90537 -4.44346,-1.82878 z m 221.767072,-0.1133 c -1.61321,-1.22564 -3.78931,-5.64857 -3.78931,-7.7018 0,-1.90606 3.24403,-0.84472 6.07692,1.98818 4.83379,4.83379 2.9027,9.65695 -2.28761,5.71362 z M 174.49728,151.94573 c 0,-3.66997 2.89795,-8.19157 6.2781,-9.79556 6.07451,-2.88254 7.05246,-1.79255 4.30068,4.79338 -2.02964,4.85762 -10.57878,8.90008 -10.57878,5.00218 z m 89.49961,0.14621 c -1.65021,-0.7192 -3.60298,-2.03371 -4.33948,-2.92114 -1.16389,-1.40241 -0.90216,-1.8799 2.00039,-3.64949 5.38531,-3.28326 12.97111,-2.20456 16.78117,2.38628 1.1193,1.34867 0.70029,1.83193 -3.07283,3.54398 -5.09254,2.31073 -7.25686,2.43263 -11.36925,0.64037 z m -202.000002,-3 c -3.64221,-1.58735 -4.97509,-3.11448 -7.04759,-8.07468 l -1.59075,-3.8072 5.16227,0.49603 c 6.05663,0.58197 10.52931,4.26016 11.57843,9.52176 0.61193,3.06895 0.48787,3.24782 -2.22697,3.21086 -1.58125,-0.0215 -4.22517,-0.62758 -5.87539,-1.34677 z M 166.37963,146.5955 c -3.49831,-3.49831 -3.88235,-4.38859 -3.88235,-9 0,-5.55087 0.52928,-5.92955 5.03273,-3.60072 3.82026,1.97553 5.96727,6.26915 5.96727,11.93341 0,5.81555 -1.80059,5.98436 -7.11765,0.66731 z m -86.382352,-2.11584 c -4.14135,-0.90825 -6.97763,-2.84749 -8.88351,-6.0739 -2.38238,-4.03305 -2.11638,-6.93279 0.63351,-6.90595 4.06119,0.0396 10.5479,3.68654 12.18368,6.8498 2.86957,5.54913 1.70346,7.36634 -3.93368,6.13005 z m 190.750002,-4.2223 c -3.08072,-1.48578 -2.82118,-3.43278 0.70034,-5.25383 3.97484,-2.05547 9.33511,-1.92487 12.07557,0.29422 l 2.24748,1.81989 -2.77156,2.18011 c -3.01786,2.37385 -8.43901,2.79846 -12.25183,0.95961 z m 25.24961,-4.16542 c -1.65021,-0.7192 -3.60298,-2.03371 -4.33948,-2.92114 -1.16389,-1.40241 -0.90216,-1.8799 2.00039,-3.64949 1.83671,-1.11979 4.9215,-2.03767 6.85508,-2.03972 3.98546,-0.004 10.4844,3.09278 10.4844,4.99626 0,1.69287 -6.34138,5.00976 -9.4844,4.96086 -1.38358,-0.0215 -3.86577,-0.62758 -5.51599,-1.34677 z M 24.358058,132.54883 c -3.02235,-2.46959 -1.40552,-4.47098 3.61188,-4.47098 4.02465,0 9.48638,4.1735 7.28804,5.56906 -2.35148,1.49276 -8.48543,0.87482 -10.89992,-1.09808 z m 61.13922,-2.58567 c 0,-3.71909 0.57272,-5.12268 3.25,-7.96487 1.7875,-1.8976 4.4875,-3.73977 6,-4.09372 2.63767,-0.61725 2.7494,-0.48593 2.73526,3.21487 -0.0193,5.04542 -1.73905,8.27587 -5.89771,11.07839 -5.04405,3.39919 -6.08755,3.01613 -6.08755,-2.23467 z m 15.000002,2.96503 c 0,-5.02507 6.0007,-10.45034 11.55875,-10.45034 2.39942,0 2.59128,0.26759 1.97175,2.75 -0.37748,1.5125 -1.4377,3.58357 -2.35605,4.60238 -3.71803,4.12475 -11.17445,6.19193 -11.17445,3.09796 z m 127.70147,0.69927 c -1.68247,-0.66402 -1.64827,-0.93279 0.53002,-4.16515 1.2807,-1.90043 3.44003,-4.01774 4.79853,-4.70515 2.79559,-1.41459 8.59276,-1.69869 9.35914,-0.45866 0.99826,1.61522 -3.49715,7.32652 -6.87894,8.73953 -3.75453,1.56874 -5.07487,1.6684 -7.80875,0.58943 z m 48.65511,-5.46164 c -3.02235,-2.76978 -3.68207,-4.12046 -4.02956,-8.25 -0.55858,-6.63794 0.61738,-8.35965 4.13538,-6.05456 5.17359,3.38986 7.49716,9.43411 5.90731,15.36659 -0.80741,3.01285 -1.74792,2.84674 -6.01313,-1.06203 z m 14.64342,-5.73763 c 0,-5.69313 4.91625,-12.1608 10.25,-13.48462 2.56112,-0.63566 2.75,-0.46684 2.75,2.45799 0,4.86608 -2.55073,9.83196 -6.18982,12.05066 -4.85814,2.96192 -6.81018,2.6684 -6.81018,-1.02403 z m -60.86711,-14.08826 c 0.16797,-1.29914 -0.0448,-2.92458 -0.47276,-3.61208 -1.08313,-1.73988 0.82766,-1.5721 2.3,0.20196 1.4683,1.7692 1.02717,4.72004 -0.79638,5.32726 -0.91221,0.30375 -1.23934,-0.30463 -1.03086,-1.91714 z m -170.141572,-3.8318 c 1.21104,-4.22266 2.80798,-6.047186 6.72656,-7.685176 4.76907,-1.9935 6.28212,-1.71914 6.28212,1.13912 0,3.990836 -4.80918,8.546626 -9.71667,9.204716 l -4.21668,0.56546 z m 19.46523,-6.347356 c -0.91348,-3.63962 1.91625,-9.30722 5.59737,-11.2108 2.64606,-1.36833 3.36149,-1.42404 4.06347,-0.31642 1.23338,1.94608 1.08105,3.62386 -0.66264,7.29841 -1.31394,2.76892 -2.84572,4.02414 -7.67543,6.289626 -0.39638,0.18593 -0.99162,-0.741436 -1.32277,-2.060816 z m 51.874982,0.10141 c -4.67326,-5.12839 -5.45746,-9.60935 -2.69901,-15.42236 1.91037,-4.0258 3.05196,-3.91141 6.11748,0.61301 2.70147,3.98711 2.85878,9.22627 0.41465,13.80935 l -1.75152,3.284326 z m -14.87285,-4.15291 c -0.69091,-3.68286 1.38877,-8.97517 3.90657,-9.94134 2.03261,-0.77998 2.63475,0.14385 2.63475,4.04233 0,4.05553 -1.34409,6.84619 -3.97574,8.25461 -1.69332,0.90624 -2.00783,0.61747 -2.56558,-2.3556 z m 133.32481,1.61858 c -4.13893,-4.74496 -4.87019,-10.15769 -2.14747,-15.8954 l 1.63602,-3.44766 2.3808,2.23664 c 3.89753,3.66155 4.97024,8.93638 2.91288,14.32351 -1.90966,5.00037 -2.53206,5.36256 -4.78223,2.78291 z m -205.008352,-2.8088 c -1.49867,-0.8133 -3.18375,-2.33618 -3.74463,-3.38419 -0.87953,-1.64342 -0.5392,-2.06405 2.47486,-3.05878 4.28463,-1.41406 9.13943,-0.0697 12.44158,3.4453 2.23113,2.37493 2.23207,2.39029 0.21279,3.47098 -2.81918,1.50878 -8.13979,1.28758 -11.3846,-0.47331 z m 64.157642,-8.6912 c -2.29859,-3.66589 -2.11814,-9.99321 0.35555,-12.4669 1.25564,-1.25564 1.7173,-1.0914 3.5767,1.27244 2.32349,2.95384 2.87242,9.19801 1.09979,12.5102 -1.46431,2.73608 -2.69288,2.41484 -5.03204,-1.31574 z m 148.54139,-4.07366 c -0.81989,-5.46746 1.2109,-10.60384 5.36083,-13.55885 3.01885,-2.14961 3.07585,-2.15258 4.11314,-0.2144 2.53247,4.73197 0.43994,12.07329 -4.56302,16.00861 -3.69099,2.90334 -4.17327,2.68382 -4.91095,-2.23536 z m -34.05421,-2.83113 c -1.90965,-3.69285 -1.36691,-9.14136 1.19228,-11.96924 0.93376,-1.03178 2.00576,-1.87597 2.38223,-1.87597 1.12239,0 3.00581,4.89212 3.00179,7.79705 -0.003,2.45179 -3.27216,9.20295 -4.45588,9.20295 -0.26896,0 -1.22315,-1.41965 -2.12042,-3.15479 z m 47.92897,-2.23969 c -1.72021,-3.60731 -1.38733,-6.82166 1.04652,-10.10552 1.34794,-1.81869 1.62688,-1.85774 3.07697,-0.43075 2.48223,2.44269 3.07753,8.44248 1.13223,11.41138 -2.20379,3.36341 -3.32341,3.17699 -5.25572,-0.87511 z M 157.6054,71.761464 c -3.95756,-1.9495 -7.64024,-9.02733 -6.6825,-12.84327 0.53592,-2.13529 0.88135,-2.27451 3.3361,-1.34452 4.12485,1.56271 7.14618,4.84843 8.25922,8.98196 0.94885,3.52376 0.51304,6.94871 -0.87793,6.89945 -0.35365,-0.0125 -2.16935,-0.77465 -4.03489,-1.69362 z m 7.89188,-7.79315 c 0,-3.19064 4.94565,-8.49046 7.92308,-8.49046 4.65927,0 -0.15792,8.90668 -5.67308,10.48917 -1.92884,0.55345 -2.25,0.26817 -2.25,-1.99871 z m -29.51423,-7.87027 c -2.4013,-5.74713 -1.48725,-10.84138 2.75851,-15.37376 l 2.11106,-2.25357 1.81574,2.75357 c 2.53767,3.84838 2.35072,10.18767 -0.42108,14.27859 -3.12484,4.61198 -4.53011,4.74549 -6.26423,0.59517 z m 65.51423,-3.07197 c 0,-3.55869 0.62146,-5.18643 3.02551,-7.92449 3.24699,-3.69812 8.5038,-6.19434 9.53408,-4.52731 1.08945,1.76276 -0.62326,8.45212 -2.86401,11.18607 -1.20757,1.47336 -3.88308,3.36858 -5.94558,4.2116 l -3.75,1.53275 z m -121.234222,-0.47336 -3.26578,-2.92514 2.8151,-1.07486 c 1.5483,-0.59117 3.48315,-1.07486 4.29966,-1.07486 1.98313,0 6.72809,2.50326 8.27264,4.36432 1.01872,1.22748 0.88274,1.68833 -0.75709,2.56594 -3.62632,1.94075 -7.90648,1.24196 -11.36453,-1.8554 z m 10.83199,-4.81043 c -0.32878,-0.32877 -0.59777,-2.34322 -0.59777,-4.47655 0,-2.84408 0.69376,-4.57255 2.60067,-6.47946 2.09653,-2.09653 2.77204,-2.33003 3.48469,-1.20455 1.31875,2.08272 1.0976,5.64165 -0.54837,8.82461 -1.47363,2.84967 -3.83239,4.44278 -4.93922,3.33595 z M 217.6126,39.435504 c -2.40648,-3.94753 -2.59543,-5.80981 -0.9548,-9.4106 1.4242,-3.12578 2.27553,-3.19029 4.28278,-0.32454 1.93119,2.75716 2.02064,8.76075 0.16828,11.29401 -1.31969,1.80478 -1.49276,1.72762 -3.49626,-1.55887 z m -82.11532,-8.32279 c 0,-5.10028 2.52781,-8.926 6.9063,-10.45235 2.64047,-0.92047 2.97591,-0.78797 3.52296,1.39165 0.89153,3.55215 -1.84154,9.0971 -5.61908,11.40021 -1.8206,1.10998 -3.64768,2.01984 -4.06018,2.02189 -0.4125,0.002 -0.75,-1.96057 -0.75,-4.3614 z m 66.31382,2.41491 c -3.3392,-2.03605 -4.98492,-4.41618 -6.3538,-9.18916 -0.78014,-2.72021 -0.66432,-2.86043 2.35979,-2.85687 6.15385,0.007 12.68019,6.42237 12.68019,12.46414 0,2.18615 -4.79353,1.95541 -8.68618,-0.41811 z"
     id="path825"
     inkscape:connector-curvature="0" />
</svg>
